<svg 
    xmlns="http://www.w3.org/2000/svg" 
    xmlns:xlink="http://www.w3.org/1999/xlink" 
    version="1.1" 
    x="0px" 
    y="0px" 
    viewBox="0 0 100.006 125.0075" enable-background="new 0 0 100.006 100.006" xml:space="preserve">
    <g id="foot">
        <path d="
            M65.398,21.378c0.01-0.014,0.013-0.027,0.021-0.041c1.854-2.31,3.213-5.337,2.572-8.126   
            c-0.615-2.672-2.231-5.229-5.234-5.219c-2.25,0.007-4.337,1.914-5.257,3.895c-0.016-0.127-0.029-0.252-0.053-0.38   
            c-0.314-1.729-1.461-3.5-3.418-3.115c-1.689,0.332-2.514,2.256-2.806,3.847c-0.322-0.683-0.858-1.245-1.602-1.48   
            c-1.879-0.594-3.297,0.82-4.069,2.392c-0.44,0.897-0.575,1.964-0.629,2.983c-0.261-0.286-0.571-0.539-0.915-0.745   
            c-1.395-0.836-3.229-0.855-4.621-0.023c-0.795,0.475-1.352,1.26-1.712,2.095c-0.256,0.593-0.711,1.903-0.541,2.742   
            c-1.388-0.06-2.361,1.853-2.813,2.868c-0.401,0.898-0.675,1.852-0.855,2.816c-0.289,1.55,0.489,2.955,0.251,4.508   
            c-0.006,0.034-0.001,0.068,0.003,0.102c-1.053,1.629-1.383,4.016-1.594,5.703c-0.593,4.754-0.217,9.803,1.121,14.396   
            c2.212,7.595,6.635,14.158,6.388,22.35c-0.144,4.762-1.335,9.14,0.745,13.746c3.955,8.758,15.745,5.893,17.836-2.676   
            c1.065-4.367,0.104-9.179-0.885-13.468c-1.087-4.711-1.515-10.083-0.496-14.848c0.52-2.428,0.662-4.441,1.747-6.731   
            c0.943-1.99,2.402-3.742,3.741-5.475c2.225-2.88,4.335-5.789,4.662-9.514c0.2-2.273-0.692-4.906-2.274-6.675   
            C64.54,25.249,63.985,23.155,65.398,21.378z M57.981,12.975c0.64-2.102,2.569-3.916,4.775-4.153   
            c3.06-0.331,4.494,3.446,4.568,5.867c0.068,2.244-2.424,6.16-2.438,6.178c-0.183,0.211-0.341,0.436-0.48,0.671   
            
            c-0.415,0.543-0.836,1.065-1.234,1.565c-0.157,0.195,0.081,0.444,0.276,0.277c0.127-0.108,0.254-0.226,0.381-0.342   
            c-0.261,1.192-0.143,2.49,0.256,3.642c-0.141-0.123-4.438-2.423-6.303-3.601c0.365-0.492,0.751-2.043,0.771-2.2   
            c0.285,0.455,0.593,0.896,0.926,1.317c0.392,0.494,1.101-0.208,0.696-0.696C58.197,19.106,57.045,16.048,57.981,12.975z    
            M57.902,19.71c0.021,0.565-0.048,1.138-0.189,1.678c-0.12,0.462-0.378,0.845-0.591,1.247c-0.577-0.422-1.104-0.906-1.559-1.477   
            c0.186-0.788,0.218-1.598,0.422-2.393c0.218-0.851,0.561-1.676,0.865-2.499C56.989,17.453,57.363,18.614,57.902,19.71z    
            M57.268,49.383c-2.153,5.223-2.11,11.389-1.714,16.94c0.313,4.397,1.891,8.557,2.05,13.01c0.222,6.189-2.736,11.349-9.381,11.801   
            c-6.367,0.434-8.229-7.133-8.225-12.059c0.001-2.163,0.423-4.271,0.574-6.427c0.064-0.026,1.625-3.91,2.768-5.597   
            c0.955-1.408,2.4-2.675,3.144-4.201c0.14-0.287-0.178-0.733-0.491-0.492c-1.372,1.058-2.44,2.83-3.411,4.249   
            c-0.826,1.207-1.546,2.505-1.979,3.894c-0.144-3.298-1.2-6.56-2.361-9.61c-2.396-6.296-5.203-11.966-5.494-18.813   
            c-0.139-3.286-0.618-12.116,3.884-12.873c0.29-0.049,0.223-0.537-0.069-0.513c-0.793,0.065-1.431,0.361-1.958,0.799   
            c0.024-1.201-0.527-2.397-0.298-3.663c0.265-1.448,0.81-2.983,1.736-4.141c1.652-2.062,3.778,1.531,2.872,3.169   
            c-0.549,0.993-2.425,1.328-2.691,2.37c-0.033,0.129,0.063,0.264,0.199,0.262c1.285-0.015,2.983-1.777,3.438-2.883   
            c0.592-1.438-0.614-3.547-2.008-4.208c0.258-0.569,0.194-1.447,0.347-2.001c0.209-0.758,0.596-1.44,1.166-1.982   
            c0.938-0.894,2.341-0.979,3.518-0.598c0.927,0.301,1.882,1.083,1.931,2.119c0.027,0.586-1.509,4.771-4.675,2.457   
            c-0.305-0.12-0.54,0.271-0.399,0.52c1.175,2.077,4.076,0.531,5.33-1.131c0.085,0.337,0.444,0.974,0.486,0.988-0.725,0.467-1.525,1.038-1.884,1.836
            c-0.061,0.136,0.067,0.294,0.213,0.212c0.758-0.427,3.877-2.301,4.038-2.654   
            c0.068-0.148,0.017-0.317-0.149-0.368c-0.604-0.183-1.42,0.441-1.961,0.806c0.29-1.405-0.182-3.089-0.098-4.546   
            c0.098-1.72,0.69-3.938,2.506-4.571c1.507-0.525,2.473,1.06,2.504,2.333c0.021,0.875-0.411,1.732-0.857,2.454   
            c-0.572,0.927-1.613,0.958-2.578,0.94c-0.599-0.01-0.576,0.861,0,0.914c0.644,0.06,1.212-0.014,1.712-0.189   
            c-0.011,0.294,0.34,1.91,0.448,1.954c0.45-0.017,0.284-1.957,0.36-2.372c0.642-0.455,1.113-1.139,1.424-1.972   
            c0.103,0.517,0.264,1.008,0.497,1.438c-0.245,0.866-1.384,2.631-1.323,2.74c0.034,0.06,0.08,0.095,0.135,0.134   
            c0.099,0.073,1.485-1.381,1.611-2.258c0.461,0.515,1.098,0.844,1.962,0.854c0.438,0.006,0.472-0.582,0.098-0.721   
            c-1.373-0.511-1.898-1.06-2.091-2.494c-0.135-1.011-0.203-2.038-0.039-3.048c0.232-1.431,1.597-3.762,3.34-2.816   
            c2.341,1.27,1.261,5.179,0.597,7.045c-0.41,1.153-1.108,3.766-1.146,3.697c-0.206-0.39-0.887-0.116-0.721,0.304   
            c0.771,1.95,2.171,3.046,3.981,4.031c3.262,1.776,6.086,2.764,7.438,6.578C67.832,37.403,58.618,46.106,57.268,49.383z"/>
        <path d="
            M49.788,60.989c-2.043,1.647-3.857,4.011-5.372,6.146c-0.178,0.25,0.202,0.514,0.409,0.316   
            c0.978-0.929,1.868-1.94,2.781-2.932c0.908-0.983,1.923-1.91,2.755-2.957C50.687,61.152,50.198,60.658,49.788,60.989z"/>
        <path d="
            M59.191,40.094c-1.108,0.337-1.785,0.506-2.815-0.188c-0.99-0.667-1.773-1.711-2.58-2.577   
            c-0.92-0.99-2.688-2.917-4.225-2.251c-0.12,0.052-0.099,0.232,0,0.291c1.001,0.591,1.923,0.873,2.815,1.706   
            c0.948,0.886,1.745,1.924,2.665,2.84c1.131,1.124,3.162,2.256,4.426,0.672C59.647,40.373,59.499,40.001,59.191,40.094z"/>
        <path d="
            M46.058,36.919c-3.113,3.076-2.934,8.366-0.664,11.948c0.166,0.263,0.514,0.081,0.472-0.199   
            c-0.286-1.92-1.109-3.684-1.326-5.641c-0.243-2.197,0.551-4.14,1.775-5.911C46.422,36.96,46.187,36.791,46.058,36.919z"/>
    </g>
</svg>