<svg 
    xmlns="http://www.w3.org/2000/svg" 
    xmlns:xlink="http://www.w3.org/1999/xlink" 
    version="1.1" x="0px" y="0px" viewBox="0 0 100 125" enable-background="new 0 0 100 100" xml:space="preserve">
    <g id="hand">
        <path d="M33.788,79.252l-9.741-16.857l-5.278-19.709c-0.386-1.436-0.188-2.936,0.555-4.223s1.943-2.208,3.379-2.592  c0.473-0.127,0.958-0.191,1.444-0.191c2.512,0,4.721,1.696,5.372,4.124l4.27,15.727V15.635c0-3.068,2.496-5.565,5.564-5.565  c3.068,0,5.565,2.497,5.565,5.565v30.422c0,0.426,0.347,0.773,0.773,0.773c0.426,0,0.772-0.347,0.772-0.773V10.564  C46.463,7.496,48.96,5,52.028,5s5.565,2.496,5.565,5.564v35.493c0,0.426,0.347,0.773,0.773,0.773c0.426,0,0.772-0.347,0.772-0.773  V17.79c0-2.928,2.383-5.311,5.312-5.311s5.311,2.383,5.311,5.311v28.267c0,0.426,0.347,0.773,0.773,0.773  c0.426,0,0.773-0.347,0.773-0.773V25.196c0-2.789,2.269-5.058,5.058-5.058c2.789,0,5.058,2.269,5.058,5.058v35.565l-5.007,18.425V95  H33.788V79.252z M75.428,79.12l5.007-18.425V25.196c0-2.244-1.825-4.069-4.069-4.069s-4.068,1.825-4.068,4.069v20.861  c0,0.972-0.791,1.762-1.762,1.762c-0.942,0-1.713-0.742-1.76-1.672L68.773,17.79c0-2.383-1.939-4.322-4.322-4.322  c-2.384,0-4.322,1.939-4.322,4.322v28.357h-0.002c-0.047,0.93-0.818,1.672-1.759,1.672c-0.972,0-1.762-0.791-1.762-1.762V10.564  c0-2.523-2.053-4.576-4.576-4.576c-2.523,0-4.576,2.053-4.576,4.576v35.493c0,0.972-0.79,1.762-1.762,1.762  c-0.972,0-1.763-0.791-1.763-1.762V15.635c0-2.523-2.053-4.576-4.576-4.576c-2.522,0-4.575,2.053-4.575,4.576v47.313l-6.213-22.887  c-0.536-1.997-2.352-3.393-4.417-3.393c-0.399,0-0.799,0.053-1.188,0.157c-1.181,0.316-2.167,1.073-2.778,2.131  c-0.612,1.059-0.773,2.292-0.457,3.473l5.212,19.527l9.841,17.03v15.024h40.651V79.12z M20.174,43.073l-0.524-1.959  c-0.064-0.239-0.075-0.611,0.239-1.021c0.671-0.875,2.577-1.483,3.868-1.483c1.301,0,1.652,0.586,1.745,0.935l0.526,1.959  c0.21,0.782,0.102,1.599-0.303,2.299c-0.404,0.701-1.058,1.203-1.84,1.412c-0.257,0.069-0.521,0.104-0.786,0.104h0  C21.73,45.319,20.528,44.395,20.174,43.073z M20.674,40.695c-0.025,0.033-0.082,0.114-0.069,0.163l0.524,1.959  c0.239,0.891,1.048,1.513,1.969,1.513h0c0.178,0,0.356-0.024,0.53-0.07c0.526-0.141,0.967-0.479,1.239-0.951  c0.273-0.472,0.345-1.021,0.204-1.548l-0.525-1.96c-0.018-0.065-0.233-0.201-0.79-0.201C22.646,39.599,21.091,40.151,20.674,40.695z   M36.575,15.84v-2.028c0-1.14,1.632-1.544,3.03-1.544c1.397,0,3.03,0.404,3.03,1.544v2.028c0,1.671-1.359,3.03-3.029,3.03  C37.935,18.87,36.575,17.511,36.575,15.84z M37.564,13.812v2.028c0,1.125,0.916,2.041,2.042,2.041c1.125,0,2.04-0.916,2.04-2.041  v-2.028c0-0.166-0.694-0.555-2.041-0.555C38.259,13.256,37.564,13.646,37.564,13.812z M48.746,11.023V8.792  c0-1.218,1.768-1.65,3.283-1.65s3.283,0.432,3.283,1.65v2.231c0,1.81-1.473,3.283-3.283,3.283  C50.218,14.306,48.746,12.833,48.746,11.023z M49.734,8.792v2.231c0,1.265,1.029,2.294,2.294,2.294c1.265,0,2.294-1.029,2.294-2.294  V8.792c0-0.263-0.916-0.661-2.294-0.661S49.734,8.529,49.734,8.792z M61.548,18.375v-2.028c0-1.14,1.632-1.545,3.029-1.545  s3.029,0.405,3.029,1.545v2.028c0,1.671-1.359,3.03-3.029,3.03S61.548,20.046,61.548,18.375z M62.537,16.347v2.028  c0,1.125,0.915,2.041,2.04,2.041c1.125,0,2.041-0.916,2.041-2.041v-2.028c0-0.166-0.694-0.556-2.041-0.556  C63.231,15.791,62.537,16.181,62.537,16.347z M73.97,26.234v-1.826c0-1.062,1.496-1.439,2.775-1.439  c1.281,0,2.776,0.377,2.776,1.439v1.826c0,1.531-1.245,2.776-2.776,2.776S73.97,27.765,73.97,26.234z M74.959,24.408v1.826  c0,0.985,0.802,1.787,1.787,1.787s1.787-0.802,1.787-1.787v-1.826c0-0.092-0.554-0.45-1.788-0.45  C75.513,23.958,74.959,24.316,74.959,24.408z M37.071,30.592h5.07v0.507h-5.07V30.592z M37.706,29.578h3.801v-0.507h-3.801V29.578z   M37.706,32.62h3.801v-0.507h-3.801V32.62z M22.783,51.846l4.899-1.313l0.13,0.49l-4.898,1.313L22.783,51.846z M23.133,50.702  l3.674-0.984l-0.131-0.489l-3.674,0.983L23.133,50.702z M23.921,53.641l3.672-0.984l-0.131-0.49l-3.672,0.984L23.921,53.641z   M49.494,28.057h5.07v0.507h-5.07V28.057z M50.127,27.043h3.803v-0.507h-3.803V27.043z M50.127,30.085h3.803v-0.507h-3.803V30.085z   M62.042,31.86h5.07v0.507h-5.07V31.86z M62.676,30.846h3.802v-0.507h-3.802V30.846z M62.676,33.888h3.802V33.38h-3.802V33.888z   M74.211,35.663h5.07v0.507h-5.07V35.663z M74.845,34.648h3.803v-0.507h-3.803V34.648z M74.845,37.691h3.803v-0.507h-3.803V37.691z"/>
    </g>
</svg>